<svg width="38" height="53" viewBox="0 0 38 53" fill="none" xmlns="http://www.w3.org/2000/svg">
<path d="M29.2891 10.8029L32.0322 12.3318L29.8542 18.421L34.8833 21.2239L33.7943 24.2685L28.7652 21.4656L24.7722 32.6291L22.029 31.1003L26.0221 19.9367L20.993 17.1338L22.082 14.0892L27.1111 16.8921L29.2891 10.8029Z" fill="white"/>
<path d="M2.673 39.62V38.663C5.357 37.805 7.502 36.408 9.108 34.472C10.736 32.536 11.715 30.248 12.045 27.608C11.451 28.422 10.714 29.082 9.834 29.588C8.954 30.072 7.942 30.314 6.798 30.314C5.61 30.314 4.576 30.039 3.696 29.489C2.838 28.939 2.167 28.191 1.683 27.245C1.221 26.277 0.99 25.188 0.99 23.978C0.99 22.856 1.254 21.778 1.782 20.744C2.31 19.688 3.102 18.83 4.158 18.17C5.214 17.51 6.534 17.18 8.118 17.18C9.57 17.18 10.835 17.532 11.913 18.236C12.991 18.94 13.827 19.897 14.421 21.107C15.015 22.317 15.312 23.692 15.312 25.232C15.312 27.542 14.795 29.654 13.761 31.568C12.749 33.46 11.297 35.088 9.405 36.452C7.513 37.838 5.269 38.894 2.673 39.62ZM4.026 23.252C4.026 26.486 5.379 28.103 8.085 28.103C8.943 28.103 9.724 27.905 10.428 27.509C11.154 27.113 11.737 26.574 12.177 25.892C12.177 25.782 12.177 25.661 12.177 25.529C12.177 23.879 11.979 22.559 11.583 21.569C11.209 20.557 10.714 19.831 10.098 19.391C9.482 18.929 8.8 18.698 8.052 18.698C7.172 18.698 6.424 18.918 5.808 19.358C5.214 19.798 4.763 20.37 4.455 21.074C4.169 21.756 4.026 22.482 4.026 23.252ZM24.75 35.33C23.122 35.33 21.747 34.934 20.625 34.142C19.503 33.35 18.645 32.272 18.051 30.908C17.457 29.544 17.16 27.993 17.16 26.255C17.16 24.517 17.457 22.966 18.051 21.602C18.645 20.238 19.503 19.16 20.625 18.368C21.747 17.576 23.122 17.18 24.75 17.18C26.378 17.18 27.753 17.576 28.875 18.368C29.997 19.16 30.855 20.238 31.449 21.602C32.043 22.966 32.34 24.517 32.34 26.255C32.34 27.993 32.043 29.544 31.449 30.908C30.855 32.272 29.997 33.35 28.875 34.142C27.753 34.934 26.378 35.33 24.75 35.33ZM24.75 32.987C26.576 32.987 28.039 32.382 29.139 31.172C30.261 29.94 30.822 28.301 30.822 26.255C30.822 24.209 30.261 22.581 29.139 21.371C28.039 20.139 26.576 19.523 24.75 19.523C22.924 19.523 21.45 20.139 20.328 21.371C19.228 22.581 18.678 24.209 18.678 26.255C18.678 28.301 19.228 29.94 20.328 31.172C21.45 32.382 22.924 32.987 24.75 32.987Z" fill="#F3E568"/>
</svg>
