<svg width="181" height="40" viewBox="0 0 181 40" fill="none" xmlns="http://www.w3.org/2000/svg">
<path d="M136.13 2.80292L139.555 4.33178L136.836 10.421L143.113 13.2239L141.754 16.2685L135.476 13.4656L130.492 24.6291L127.068 23.1003L132.052 11.9367L125.775 9.13381L127.134 6.0892L133.412 8.89212L136.13 2.80292Z" fill="white"/>
<path d="M2.145 35V34.472L4.785 33.152V15.068L2.145 13.748V13.22H10.494C11.946 13.22 13.244 13.407 14.388 13.781C15.554 14.133 16.467 14.672 17.127 15.398C17.787 16.102 18.117 17.004 18.117 18.104C18.117 19.226 17.743 20.26 16.995 21.206C16.247 22.13 15.169 22.79 13.761 23.186C15.719 23.45 17.248 24.066 18.348 25.034C19.448 25.98 19.998 27.19 19.998 28.664C19.998 29.874 19.613 30.963 18.843 31.931C18.095 32.877 17.061 33.625 15.741 34.175C14.421 34.725 12.925 35 11.253 35H2.145ZM9.735 15.035H7.755V22.856H9.933C11.495 22.856 12.716 22.526 13.596 21.866C14.476 21.184 14.916 20.238 14.916 19.028C14.916 16.366 13.189 15.035 9.735 15.035ZM10.989 24.671H7.755V33.185H11.22C12.958 33.185 14.322 32.789 15.312 31.997C16.302 31.205 16.797 30.182 16.797 28.928C16.797 27.432 16.291 26.354 15.279 25.694C14.289 25.012 12.859 24.671 10.989 24.671ZM23.7084 35V34.472L25.8864 33.383V18.137L23.7084 17.048V16.52H30.9354V17.048L28.6914 18.137V33.383L30.9354 34.472V35H23.7084ZM35.4028 35V34.472L37.7458 33.383V18.137L35.4028 17.048V16.52H42.1348C44.4228 16.52 46.1608 16.872 47.3488 17.576C48.5588 18.28 49.1638 19.347 49.1638 20.777C49.1638 21.833 48.8448 22.746 48.2068 23.516C47.5688 24.286 46.6888 24.825 45.5668 25.133C47.2168 25.375 48.5148 25.892 49.4608 26.684C50.4068 27.476 50.8798 28.477 50.8798 29.687C50.8798 30.699 50.5498 31.612 49.8898 32.426C49.2518 33.218 48.3388 33.845 47.1508 34.307C45.9848 34.769 44.6318 35 43.0918 35H35.4028ZM41.7058 18.17H40.5508V24.605H41.7718C43.0918 24.605 44.1698 24.352 45.0058 23.846C45.8638 23.318 46.2928 22.471 46.2928 21.305C46.2928 20.271 45.8968 19.49 45.1048 18.962C44.3348 18.434 43.2018 18.17 41.7058 18.17ZM42.7948 26.255H40.5508V33.35H43.0258C44.4778 33.35 45.6548 33.075 46.5568 32.525C47.4808 31.953 47.9428 31.051 47.9428 29.819C47.9428 28.477 47.4808 27.553 46.5568 27.047C45.6328 26.519 44.3788 26.255 42.7948 26.255ZM54.7388 35V34.472L57.0818 33.383V18.137L54.7388 17.048V16.52H62.5598V17.048L59.8868 18.137V33.35H67.0478L68.9948 28.664H69.5228V35H54.7388ZM73.8207 35V34.472L75.9987 33.383V18.137L73.8207 17.048V16.52H81.0477V17.048L78.8037 18.137V33.383L81.0477 34.472V35H73.8207ZM84.4591 35V34.472L86.1421 33.614L93.4681 16.355H94.8541L102.147 33.581L104.061 34.472V35H96.8671V34.472L99.1771 33.548L97.0981 28.532H90.2341L88.1551 33.614L90.5971 34.472V35H84.4591ZM90.9271 26.882H96.4051L93.6331 20.216L90.9271 26.882ZM107.828 39.62V38.663C110.512 37.805 112.657 36.408 114.263 34.472C115.891 32.536 116.87 30.248 117.2 27.608C116.606 28.422 115.869 29.082 114.989 29.588C114.109 30.072 113.097 30.314 111.953 30.314C110.765 30.314 109.731 30.039 108.851 29.489C107.993 28.939 107.322 28.191 106.838 27.245C106.376 26.277 106.145 25.188 106.145 23.978C106.145 22.856 106.409 21.778 106.937 20.744C107.465 19.688 108.257 18.83 109.313 18.17C110.369 17.51 111.689 17.18 113.273 17.18C114.725 17.18 115.99 17.532 117.068 18.236C118.146 18.94 118.982 19.897 119.576 21.107C120.17 22.317 120.467 23.692 120.467 25.232C120.467 27.542 119.95 29.654 118.916 31.568C117.904 33.46 116.452 35.088 114.56 36.452C112.668 37.838 110.424 38.894 107.828 39.62ZM109.181 23.252C109.181 26.486 110.534 28.103 113.24 28.103C114.098 28.103 114.879 27.905 115.583 27.509C116.309 27.113 116.892 26.574 117.332 25.892C117.332 25.782 117.332 25.661 117.332 25.529C117.332 23.879 117.134 22.559 116.738 21.569C116.364 20.557 115.869 19.831 115.253 19.391C114.637 18.929 113.955 18.698 113.207 18.698C112.327 18.698 111.579 18.918 110.963 19.358C110.369 19.798 109.918 20.37 109.61 21.074C109.324 21.756 109.181 22.482 109.181 23.252ZM129.905 35.33C128.277 35.33 126.902 34.934 125.78 34.142C124.658 33.35 123.8 32.272 123.206 30.908C122.612 29.544 122.315 27.993 122.315 26.255C122.315 24.517 122.612 22.966 123.206 21.602C123.8 20.238 124.658 19.16 125.78 18.368C126.902 17.576 128.277 17.18 129.905 17.18C131.533 17.18 132.908 17.576 134.03 18.368C135.152 19.16 136.01 20.238 136.604 21.602C137.198 22.966 137.495 24.517 137.495 26.255C137.495 27.993 137.198 29.544 136.604 30.908C136.01 32.272 135.152 33.35 134.03 34.142C132.908 34.934 131.533 35.33 129.905 35.33ZM129.905 32.987C131.731 32.987 133.194 32.382 134.294 31.172C135.416 29.94 135.977 28.301 135.977 26.255C135.977 24.209 135.416 22.581 134.294 21.371C133.194 20.139 131.731 19.523 129.905 19.523C128.079 19.523 126.605 20.139 125.483 21.371C124.383 22.581 123.833 24.209 123.833 26.255C123.833 28.301 124.383 29.94 125.483 31.172C126.605 32.382 128.079 32.987 129.905 32.987Z" fill="#F3E568"/>
</svg>
